<svg width="715" height="44" viewBox="0 0 715 44" fill="none" xmlns="http://www.w3.org/2000/svg">
<path d="M24.5 18.25H16.8844L19.1263 16.0088L18.25 15.125L14.5 18.875L18.25 22.625L19.1263 21.7406L16.8863 19.5H24.5C25.4946 19.5 26.4484 19.8951 27.1517 20.5983C27.8549 21.3016 28.25 22.2554 28.25 23.25C28.25 24.2446 27.8549 25.1984 27.1517 25.9017C26.4484 26.6049 25.4946 27 24.5 27H19.5V28.25H24.5C25.8261 28.25 27.0979 27.7232 28.0355 26.7855C28.9732 25.8479 29.5 24.5761 29.5 23.25C29.5 21.9239 28.9732 20.6521 28.0355 19.7145C27.0979 18.7768 25.8261 18.25 24.5 18.25Z" fill="#212529"/>
<path d="M49.5 18.25H57.1156L54.8737 16.0088L55.75 15.125L59.5 18.875L55.75 22.625L54.8737 21.7406L57.1137 19.5H49.5C48.5054 19.5 47.5516 19.8951 46.8483 20.5983C46.1451 21.3016 45.75 22.2554 45.75 23.25C45.75 24.2446 46.1451 25.1984 46.8483 25.9017C47.5516 26.6049 48.5054 27 49.5 27H54.5V28.25H49.5C48.1739 28.25 46.9021 27.7232 45.9645 26.7855C45.0268 25.8479 44.5 24.5761 44.5 23.25C44.5 21.9239 45.0268 20.6521 45.9645 19.7145C46.9021 18.7768 48.1739 18.25 49.5 18.25Z" fill="#212529"/>
<path d="M91.282 27H89.812L84.464 18.698H84.408C84.4173 18.866 84.4267 19.0527 84.436 19.258C84.4547 19.4633 84.4687 19.6873 84.478 19.93C84.4873 20.1633 84.4967 20.406 84.506 20.658C84.5153 20.91 84.52 21.162 84.52 21.414V27H83.358V17.004H84.814L90.148 25.278H90.204C90.1947 25.166 90.1853 25.012 90.176 24.816C90.1667 24.6107 90.1573 24.3867 90.148 24.144C90.1387 23.892 90.1293 23.6353 90.12 23.374C90.1107 23.1127 90.106 22.87 90.106 22.646V17.004H91.282V27ZM100.351 23.234C100.351 23.8593 100.267 24.4147 100.099 24.9C99.9401 25.376 99.7067 25.782 99.3987 26.118C99.1001 26.454 98.7314 26.7107 98.2927 26.888C97.8634 27.056 97.3827 27.14 96.8507 27.14C96.3561 27.14 95.8987 27.056 95.4787 26.888C95.0587 26.7107 94.6947 26.454 94.3867 26.118C94.0787 25.782 93.8361 25.376 93.6587 24.9C93.4907 24.4147 93.4067 23.8593 93.4067 23.234C93.4067 22.4033 93.5467 21.7033 93.8267 21.134C94.1067 20.5553 94.5081 20.1167 95.0307 19.818C95.5534 19.51 96.1741 19.356 96.8927 19.356C97.5741 19.356 98.1714 19.51 98.6847 19.818C99.2074 20.1167 99.6134 20.5553 99.9027 21.134C100.201 21.7033 100.351 22.4033 100.351 23.234ZM94.6807 23.234C94.6807 23.822 94.7554 24.3353 94.9047 24.774C95.0634 25.2033 95.3061 25.5347 95.6327 25.768C95.9594 26.0013 96.3747 26.118 96.8787 26.118C97.3827 26.118 97.7981 26.0013 98.1247 25.768C98.4514 25.5347 98.6894 25.2033 98.8387 24.774C98.9974 24.3353 99.0767 23.822 99.0767 23.234C99.0767 22.6367 98.9974 22.128 98.8387 21.708C98.6801 21.288 98.4374 20.966 98.1107 20.742C97.7934 20.5087 97.3781 20.392 96.8647 20.392C96.0994 20.392 95.5441 20.644 95.1987 21.148C94.8534 21.652 94.6807 22.3473 94.6807 23.234ZM105.803 19.356C105.943 19.356 106.093 19.3653 106.251 19.384C106.419 19.3933 106.564 19.412 106.685 19.44L106.531 20.574C106.41 20.546 106.275 20.5227 106.125 20.504C105.985 20.4853 105.85 20.476 105.719 20.476C105.43 20.476 105.155 20.5367 104.893 20.658C104.632 20.7793 104.399 20.952 104.193 21.176C103.988 21.3907 103.825 21.652 103.703 21.96C103.591 22.268 103.535 22.6133 103.535 22.996V27H102.303V19.496H103.311L103.451 20.868H103.507C103.666 20.588 103.857 20.336 104.081 20.112C104.305 19.8787 104.562 19.6967 104.851 19.566C105.141 19.426 105.458 19.356 105.803 19.356ZM116.318 19.356C117.168 19.356 117.802 19.5753 118.222 20.014C118.642 20.4433 118.852 21.1433 118.852 22.114V27H117.634V22.17C117.634 21.582 117.508 21.1387 117.256 20.84C117.014 20.5413 116.631 20.392 116.108 20.392C115.38 20.392 114.858 20.602 114.54 21.022C114.232 21.442 114.078 22.0533 114.078 22.856V27H112.86V22.17C112.86 21.778 112.804 21.4513 112.692 21.19C112.58 20.9193 112.412 20.7187 112.188 20.588C111.964 20.4573 111.675 20.392 111.32 20.392C110.816 20.392 110.42 20.4993 110.13 20.714C109.841 20.9193 109.631 21.2227 109.5 21.624C109.379 22.0253 109.318 22.52 109.318 23.108V27H108.086V19.496H109.08L109.262 20.518H109.332C109.491 20.2567 109.682 20.042 109.906 19.874C110.14 19.6967 110.396 19.566 110.676 19.482C110.956 19.398 111.246 19.356 111.544 19.356C112.123 19.356 112.604 19.4587 112.986 19.664C113.378 19.8693 113.663 20.1867 113.84 20.616H113.91C114.162 20.1867 114.503 19.8693 114.932 19.664C115.371 19.4587 115.833 19.356 116.318 19.356ZM124.012 19.37C124.927 19.37 125.604 19.5707 126.042 19.972C126.481 20.3733 126.7 21.0127 126.7 21.89V27H125.804L125.566 25.936H125.51C125.296 26.2067 125.072 26.4353 124.838 26.622C124.614 26.7993 124.353 26.93 124.054 27.014C123.765 27.098 123.41 27.14 122.99 27.14C122.542 27.14 122.136 27.0607 121.772 26.902C121.418 26.7433 121.138 26.5007 120.932 26.174C120.727 25.838 120.624 25.418 120.624 24.914C120.624 24.1673 120.918 23.5933 121.506 23.192C122.094 22.7813 123 22.5573 124.222 22.52L125.496 22.478V22.03C125.496 21.4047 125.361 20.9707 125.09 20.728C124.82 20.4853 124.437 20.364 123.942 20.364C123.55 20.364 123.177 20.4247 122.822 20.546C122.468 20.658 122.136 20.7887 121.828 20.938L121.45 20.014C121.777 19.8367 122.164 19.6873 122.612 19.566C123.06 19.4353 123.527 19.37 124.012 19.37ZM124.376 23.374C123.443 23.4113 122.794 23.5607 122.43 23.822C122.076 24.0833 121.898 24.452 121.898 24.928C121.898 25.348 122.024 25.656 122.276 25.852C122.538 26.048 122.869 26.146 123.27 26.146C123.905 26.146 124.432 25.9733 124.852 25.628C125.272 25.2733 125.482 24.732 125.482 24.004V23.332L124.376 23.374ZM130.25 27H129.018V16.36H130.25V27ZM138.77 26.132C138.957 26.132 139.148 26.118 139.344 26.09C139.54 26.0527 139.699 26.0153 139.82 25.978V26.916C139.69 26.9813 139.503 27.0327 139.26 27.07C139.018 27.1167 138.784 27.14 138.56 27.14C138.168 27.14 137.804 27.0747 137.468 26.944C137.142 26.804 136.876 26.566 136.67 26.23C136.465 25.894 136.362 25.4227 136.362 24.816V20.448H135.298V19.86L136.376 19.37L136.866 17.774H137.594V19.496H139.764V20.448H137.594V24.788C137.594 25.2453 137.702 25.586 137.916 25.81C138.14 26.0247 138.425 26.132 138.77 26.132ZM144.221 19.356C144.865 19.356 145.415 19.496 145.873 19.776C146.339 20.056 146.694 20.4527 146.937 20.966C147.189 21.47 147.315 22.0627 147.315 22.744V23.486H142.177C142.195 24.3353 142.41 24.984 142.821 25.432C143.241 25.8707 143.824 26.09 144.571 26.09C145.047 26.09 145.467 26.048 145.831 25.964C146.204 25.8707 146.587 25.74 146.979 25.572V26.65C146.596 26.818 146.218 26.9393 145.845 27.014C145.471 27.098 145.028 27.14 144.515 27.14C143.805 27.14 143.175 26.9953 142.625 26.706C142.083 26.4167 141.659 25.9873 141.351 25.418C141.052 24.8393 140.903 24.1347 140.903 23.304C140.903 22.4827 141.038 21.778 141.309 21.19C141.589 20.602 141.976 20.1493 142.471 19.832C142.975 19.5147 143.558 19.356 144.221 19.356ZM144.207 20.364C143.619 20.364 143.152 20.5553 142.807 20.938C142.471 21.3113 142.27 21.834 142.205 22.506H146.027C146.027 22.0767 145.961 21.7033 145.831 21.386C145.7 21.0687 145.499 20.8213 145.229 20.644C144.967 20.4573 144.627 20.364 144.207 20.364ZM150.73 23.164L148.14 19.496H149.54L151.472 22.324L153.39 19.496H154.776L152.186 23.164L154.916 27H153.516L151.472 24.004L149.4 27H148.014L150.73 23.164ZM158.868 26.132C159.055 26.132 159.246 26.118 159.442 26.09C159.638 26.0527 159.797 26.0153 159.918 25.978V26.916C159.787 26.9813 159.601 27.0327 159.358 27.07C159.115 27.1167 158.882 27.14 158.658 27.14C158.266 27.14 157.902 27.0747 157.566 26.944C157.239 26.804 156.973 26.566 156.768 26.23C156.563 25.894 156.46 25.4227 156.46 24.816V20.448H155.396V19.86L156.474 19.37L156.964 17.774H157.692V19.496H159.862V20.448H157.692V24.788C157.692 25.2453 157.799 25.586 158.014 25.81C158.238 26.0247 158.523 26.132 158.868 26.132Z" fill="#212529"/>
<path d="M171 24.9998L166 19.9998L166.7 19.2998L171 23.5998L175.3 19.2998L176 19.9998L171 24.9998Z" fill="#212529"/>
<path d="M206.5 15.75H215.25V17H206.5V15.75ZM206.5 19.5H212.75V20.75H206.5V19.5ZM206.5 23.25H215.25V24.5H206.5V23.25ZM206.5 27H212.75V28.25H206.5V27ZM202.75 14.5H204V29.5H202.75V14.5Z" fill="#212529"/>
<path d="M229 24.9998L224 19.9998L224.7 19.2998L229 23.5998L233.3 19.2998L234 19.9998L229 24.9998Z" fill="#212529"/>
<rect x="257" y="12" width="20" height="20" rx="4" fill="#212529"/>
<g style="mix-blend-mode:multiply" opacity="0.7">
<rect x="257.5" y="12.5" width="19" height="19" rx="3.5" stroke="#212529"/>
</g>
<path d="M287 24.9998L282 19.9998L282.7 19.2998L287 23.5998L291.3 19.2998L292 19.9998L287 24.9998Z" fill="#212529"/>
<path d="M322.406 27.625H316.625V16.375H321.938C322.564 16.375 323.177 16.5543 323.705 16.8917C324.233 17.2291 324.653 17.7105 324.916 18.279C325.178 18.8475 325.273 19.4794 325.188 20.1C325.104 20.7206 324.843 21.304 324.438 21.7812C324.967 22.205 325.353 22.7825 325.541 23.4344C325.729 24.0862 325.71 24.7803 325.487 25.4211C325.265 26.0619 324.849 26.6179 324.297 27.0126C323.745 27.4073 323.085 27.6213 322.406 27.625ZM318.5 25.75H322.394C322.578 25.75 322.761 25.7136 322.932 25.643C323.103 25.5723 323.258 25.4687 323.388 25.3381C323.519 25.2075 323.622 25.0525 323.693 24.8819C323.764 24.7113 323.8 24.5284 323.8 24.3438C323.8 24.1591 323.764 23.9762 323.693 23.8056C323.622 23.635 323.519 23.48 323.388 23.3494C323.258 23.2188 323.103 23.1152 322.932 23.0445C322.761 22.9739 322.578 22.9375 322.394 22.9375H318.5V25.75ZM318.5 21.0625H321.938C322.122 21.0625 322.305 21.0261 322.476 20.9555C322.646 20.8848 322.801 20.7812 322.932 20.6506C323.062 20.52 323.166 20.365 323.237 20.1944C323.307 20.0238 323.344 19.8409 323.344 19.6562C323.344 19.4716 323.307 19.2887 323.237 19.1181C323.166 18.9475 323.062 18.7925 322.932 18.6619C322.801 18.5313 322.646 18.4277 322.476 18.357C322.305 18.2864 322.122 18.25 321.938 18.25H318.5V21.0625Z" fill="#212529"/>
<path d="M356.625 17.625V16.375H348.5V17.625H351.712L348.981 26.375H345.375V27.625H353.5V26.375H350.287L353.019 17.625H356.625Z" fill="#212529"/>
<path d="M373.5 28.25H388.5V29.5H373.5V28.25ZM381 26.375C379.84 26.375 378.727 25.9141 377.906 25.0936C377.086 24.2731 376.625 23.1603 376.625 22V15.125H377.875V22C377.875 22.8288 378.204 23.6237 378.79 24.2097C379.376 24.7958 380.171 25.125 381 25.125C381.829 25.125 382.624 24.7958 383.21 24.2097C383.796 23.6237 384.125 22.8288 384.125 22V15.125H385.375V22C385.375 23.1603 384.914 24.2731 384.094 25.0936C383.273 25.9141 382.16 26.375 381 26.375Z" fill="#212529"/>
<path d="M418.5 21.3749H412.222C411.945 21.3003 411.666 21.2305 411.386 21.1655C409.631 20.7505 408.639 20.4468 408.639 19.0261C408.624 18.7809 408.661 18.5354 408.745 18.3047C408.83 18.0741 408.961 17.8633 409.131 17.6855C409.661 17.249 410.326 17.0084 411.014 17.0043C412.782 16.9605 413.598 17.5605 414.265 18.473L415.274 17.7355C414.802 17.057 414.158 16.516 413.408 16.168C412.658 15.8199 411.829 15.6771 411.006 15.7543C409.994 15.7607 409.019 16.129 408.256 16.7924C407.966 17.0858 407.74 17.4354 407.591 17.8196C407.442 18.2038 407.374 18.6144 407.389 19.0261C407.362 19.4767 407.447 19.927 407.636 20.3369C407.825 20.7467 408.113 21.1034 408.473 21.3749H403.5V22.6249H412.033C413.262 22.9811 413.997 23.4449 414.016 24.7236C414.036 24.9968 413.998 25.2712 413.906 25.5289C413.813 25.7866 413.667 26.0218 413.477 26.2193C412.816 26.7406 411.994 27.0165 411.152 26.9999C410.523 26.9817 409.907 26.8208 409.35 26.5294C408.793 26.2381 408.31 25.8238 407.936 25.318L406.978 26.1205C407.464 26.7675 408.09 27.2954 408.81 27.6643C409.53 28.0333 410.324 28.2335 411.132 28.2499H411.195C412.349 28.2632 413.47 27.8595 414.35 27.113C414.662 26.7979 414.905 26.4208 415.063 26.006C415.221 25.5913 415.29 25.148 415.266 24.7049C415.289 23.9469 415.033 23.2068 414.547 22.6249H418.5V21.3749Z" fill="#212529"/>
<path d="M450.375 22L446 26.375L445.119 25.4938L448.606 22L445.119 18.5062L446 17.625L450.375 22ZM431.625 22L436 17.625L436.881 18.5062L433.394 22L436.881 25.4938L436 26.375L431.625 22Z" fill="#212529"/>
<path d="M479.399 22.3575L474.408 17.3663C474.174 17.1319 473.856 17.0002 473.524 17.0002C473.193 17.0002 472.875 17.1319 472.64 17.3663L469.291 20.715L466.625 13.25H465.375L462.25 22H463.5L464.124 20.125H467.874L468.376 21.63L463.866 26.14C463.75 26.2561 463.658 26.3939 463.595 26.5456C463.532 26.6973 463.5 26.8599 463.5 27.0241C463.5 27.1883 463.532 27.3508 463.595 27.5025C463.658 27.6542 463.75 27.792 463.866 27.9081L466.707 30.75H472.701L479.399 24.0519C479.51 23.9406 479.598 23.8085 479.659 23.6631C479.719 23.5177 479.75 23.3618 479.75 23.2044C479.75 23.047 479.719 22.8911 479.659 22.7457C479.598 22.6003 479.51 22.4681 479.399 22.3569V22.3575ZM464.541 18.875L465.997 14.5L467.457 18.875H464.541ZM472.184 29.5H467.225L464.75 27.0238L468.695 23.0794L473.65 28.0337L472.184 29.5ZM474.534 27.15L469.579 22.1956L473.524 18.25L478.479 23.2044L474.534 27.15Z" fill="#212529"/>
<path d="M501.375 19.5C502.411 19.5 503.25 18.6605 503.25 17.625C503.25 16.5895 502.411 15.75 501.375 15.75C500.339 15.75 499.5 16.5895 499.5 17.625C499.5 18.6605 500.339 19.5 501.375 19.5Z" fill="#212529"/>
<path d="M501.375 28.25C502.411 28.25 503.25 27.4105 503.25 26.375C503.25 25.3395 502.411 24.5 501.375 24.5C500.339 24.5 499.5 25.3395 499.5 26.375C499.5 27.4105 500.339 28.25 501.375 28.25Z" fill="#212529"/>
<path d="M507 25.75H515.75V27H507V25.75ZM507 17H515.75V18.25H507V17Z" fill="#212529"/>
<path d="M537 25.75H545.75V27H537V25.75ZM537 17H545.75V18.25H537V17ZM532 19.5V14.5H530.75V15.125H529.5V16.375H530.75V19.5H529.5V20.75H533.25V19.5H532ZM533.25 29.5H529.5V27C529.5 26.6685 529.632 26.3505 529.866 26.1161C530.101 25.8817 530.418 25.75 530.75 25.75H532V24.5H529.5V23.25H532C532.332 23.25 532.649 23.3817 532.884 23.6161C533.118 23.8505 533.25 24.1685 533.25 24.5V25.75C533.25 26.0815 533.118 26.3995 532.884 26.6339C532.649 26.8683 532.332 27 532 27H530.75V28.25H533.25V29.5Z" fill="#212529"/>
<path d="M581.281 16.225C580.933 15.8754 580.519 15.598 580.063 15.4088C579.607 15.2195 579.119 15.1221 578.625 15.1221C578.131 15.1221 577.643 15.2195 577.187 15.4088C576.731 15.598 576.317 15.8754 575.969 16.225L576.856 17.1125C577.089 16.8798 577.365 16.6953 577.669 16.5693C577.973 16.4434 578.299 16.3786 578.628 16.3786C578.957 16.3786 579.283 16.4434 579.587 16.5693C579.891 16.6953 580.167 16.8798 580.4 17.1125C580.633 17.3452 580.817 17.6215 580.943 17.9255C581.069 18.2295 581.134 18.5553 581.134 18.8844C581.134 19.2135 581.069 19.5393 580.943 19.8433C580.817 20.1474 580.633 20.4236 580.4 20.6563L575.4 25.6563C574.931 26.1262 574.294 26.3905 573.63 26.3911C572.966 26.3917 572.329 26.1285 571.859 25.6594C571.389 25.1903 571.125 24.5537 571.125 23.8897C571.124 23.2257 571.387 22.5887 571.856 22.1188L572.738 21.2313L571.856 20.3438L570.969 21.2313C570.619 21.5797 570.342 21.9936 570.153 22.4495C569.963 22.9053 569.866 23.394 569.866 23.8875C569.866 24.3811 569.963 24.8698 570.153 25.3256C570.342 25.7814 570.619 26.1954 570.969 26.5438C571.676 27.2419 572.631 27.6308 573.625 27.625C574.12 27.6271 574.611 27.5309 575.069 27.3421C575.528 27.1533 575.944 26.8756 576.294 26.525L581.294 21.525C581.994 20.8202 582.387 19.8662 582.384 18.8724C582.382 17.8787 581.985 16.9265 581.281 16.225Z" fill="#212529"/>
<path d="M565.619 27.5125C565.385 27.2802 565.2 27.0041 565.074 26.7C564.947 26.396 564.882 26.0699 564.882 25.7407C564.882 25.4114 564.947 25.0853 565.074 24.7813C565.2 24.4772 565.385 24.2011 565.619 23.9688L570.619 18.9688C570.851 18.7354 571.127 18.5502 571.431 18.4238C571.735 18.2975 572.061 18.2324 572.391 18.2324C572.72 18.2324 573.046 18.2975 573.35 18.4238C573.654 18.5502 573.93 18.7354 574.163 18.9688C574.394 19.2029 574.577 19.4812 574.699 19.7872C574.822 20.0931 574.882 20.4206 574.875 20.75C574.877 21.0805 574.813 21.4081 574.688 21.7139C574.562 22.0196 574.377 22.2974 574.144 22.5313L572.819 23.875L573.706 24.7625L575.031 23.4375C575.737 22.7322 576.133 21.7756 576.133 20.7782C576.133 19.7807 575.737 18.8241 575.031 18.1188C574.326 17.4135 573.369 17.0172 572.372 17.0172C571.374 17.0172 570.418 17.4135 569.713 18.1188L564.713 23.1188C564.362 23.4673 564.084 23.8816 563.894 24.338C563.704 24.7944 563.606 25.2839 563.606 25.7782C563.606 26.2725 563.704 26.7619 563.894 27.2183C564.084 27.6747 564.362 28.089 564.713 28.4375C565.424 29.1303 566.382 29.5124 567.375 29.5C568.377 29.501 569.339 29.1055 570.05 28.4L569.163 27.5125C568.93 27.7459 568.654 27.9311 568.35 28.0575C568.046 28.1838 567.72 28.2489 567.391 28.2489C567.061 28.2489 566.735 28.1838 566.431 28.0575C566.127 27.9311 565.851 27.7459 565.619 27.5125Z" fill="#212529"/>
<path d="M604.875 20.75C605.246 20.75 605.608 20.64 605.917 20.434C606.225 20.228 606.465 19.9351 606.607 19.5925C606.749 19.2499 606.786 18.8729 606.714 18.5092C606.642 18.1455 606.463 17.8114 606.201 17.5492C605.939 17.287 605.605 17.1084 605.241 17.036C604.877 16.9637 604.5 17.0008 604.157 17.1427C603.815 17.2846 603.522 17.525 603.316 17.8333C603.11 18.1416 603 18.5042 603 18.875C603 19.3723 603.198 19.8492 603.549 20.2008C603.901 20.5525 604.378 20.75 604.875 20.75ZM604.875 18.25C604.999 18.25 605.119 18.2867 605.222 18.3553C605.325 18.424 605.405 18.5216 605.452 18.6358C605.5 18.75 605.512 18.8757 605.488 18.9969C605.464 19.1182 605.404 19.2295 605.317 19.3169C605.23 19.4043 605.118 19.4639 604.997 19.488C604.876 19.5121 604.75 19.4997 604.636 19.4524C604.522 19.4051 604.424 19.325 604.355 19.2222C604.287 19.1195 604.25 18.9986 604.25 18.875C604.25 18.7092 604.316 18.5503 604.433 18.4331C604.55 18.3158 604.709 18.25 604.875 18.25Z" fill="#212529"/>
<path d="M609.25 14.5H596.75C596.418 14.5 596.101 14.6317 595.866 14.8661C595.632 15.1005 595.5 15.4185 595.5 15.75V28.25C595.5 28.5815 595.632 28.8995 595.866 29.1339C596.101 29.3683 596.418 29.5 596.75 29.5H609.25C609.582 29.5 609.899 29.3683 610.134 29.1339C610.368 28.8995 610.5 28.5815 610.5 28.25V15.75C610.5 15.4185 610.368 15.1005 610.134 14.8661C609.899 14.6317 609.582 14.5 609.25 14.5ZM609.25 28.25H596.75V24.5L599.875 21.375L603.369 24.8687C603.603 25.1016 603.92 25.2322 604.25 25.2322C604.58 25.2322 604.897 25.1016 605.131 24.8687L606.125 23.875L609.25 27V28.25ZM609.25 25.2312L607.006 22.9875C606.772 22.7547 606.455 22.624 606.125 22.624C605.795 22.624 605.478 22.7547 605.244 22.9875L604.25 23.9812L600.756 20.4875C600.522 20.2547 600.205 20.124 599.875 20.124C599.545 20.124 599.228 20.2547 598.994 20.4875L596.75 22.7312V15.75H609.25V25.2312Z" fill="#212529"/>
<path d="M642.375 22L638 26.375L637.119 25.4937L640.606 22L637.119 18.5062L638 17.625L642.375 22ZM623.625 22L628 17.625L628.881 18.5062L625.394 22L628.881 25.4937L628 26.375L623.625 22ZM630.762 27.9275L634.025 15.75L635.233 16.0731L631.97 28.25L630.762 27.9275Z" fill="#212529"/>
<path d="M660.5 21.375H656.819C656.935 20.6015 657.211 19.8607 657.63 19.1999C658.048 18.5391 658.6 17.9729 659.25 17.5375L660.369 16.7875L659.681 15.75L658.562 16.5C657.621 17.1275 656.849 17.9778 656.314 18.9755C655.78 19.9731 655.5 21.0871 655.5 22.2188V26.375C655.5 26.7065 655.632 27.0245 655.866 27.2589C656.101 27.4933 656.418 27.625 656.75 27.625H660.5C660.832 27.625 661.149 27.4933 661.384 27.2589C661.618 27.0245 661.75 26.7065 661.75 26.375V22.625C661.75 22.2935 661.618 21.9755 661.384 21.7411C661.149 21.5067 660.832 21.375 660.5 21.375ZM669.25 21.375H665.569C665.685 20.6015 665.961 19.8607 666.38 19.1999C666.798 18.5391 667.35 17.9729 668 17.5375L669.119 16.7875L668.438 15.75L667.312 16.5C666.371 17.1275 665.599 17.9778 665.064 18.9755C664.53 19.9731 664.25 21.0871 664.25 22.2188V26.375C664.25 26.7065 664.382 27.0245 664.616 27.2589C664.851 27.4933 665.168 27.625 665.5 27.625H669.25C669.582 27.625 669.899 27.4933 670.134 27.2589C670.368 27.0245 670.5 26.7065 670.5 26.375V22.625C670.5 22.2935 670.368 21.9755 670.134 21.7411C669.899 21.5067 669.582 21.375 669.25 21.375Z" fill="#212529"/>
<rect x="685.5" y="21.375" width="15" height="1.25" fill="#212529"/>
<rect x="559" y="8" width="148" height="28" stroke="#E9ECEF"/>
</svg>
