<svg width="24" height="24" viewBox="0 0 24 24" fill="none" xmlns="http://www.w3.org/2000/svg">
<rect width="24" height="24" rx="5" fill="#D9D9D9"/>
<g clip-path="url(#clip0_84_40041)">
<path d="M17.4913 10.5385L11.21 16.8354C9.99125 18.0535 8.00875 18.0535 6.79063 16.8354C5.5725 15.6172 5.57188 13.6341 6.79063 12.4154L13.4331 5.79973C14.1644 5.06848 15.3538 5.06848 16.085 5.79973C16.8156 6.53098 16.8162 7.71973 16.085 8.45098L10.7681 13.741C10.5244 13.9847 10.1281 13.9847 9.88438 13.741C9.64062 13.4972 9.64062 13.101 9.88438 12.8572L14.3175 8.45098L13.4331 7.56723L9 11.9729C8.2675 12.7054 8.26813 13.8935 9 14.6254C9.73187 15.3572 10.9194 15.3572 11.6512 14.6254L16.9681 9.33535C17.5788 8.72473 17.8831 7.92535 17.8831 7.12535C17.8831 5.39473 16.4794 4.00098 14.7581 4.00098C13.9581 4.00098 13.1587 4.30598 12.5481 4.9166L5.90625 11.531C5.0525 12.386 4.625 13.5054 4.625 14.6254C4.625 17.0397 6.58125 19.0004 9 19.0004C10.12 19.0004 11.2394 18.5729 12.0938 17.7191L18.375 11.4222L17.4913 10.5385Z" fill="#3A3541"/>
</g>
<defs>
<clipPath id="clip0_84_40041">
<rect width="15" height="15" fill="white" transform="translate(4 4)"/>
</clipPath>
</defs>
</svg>
