<svg width="37" height="37" viewBox="0 0 37 37" fill="none" xmlns="http://www.w3.org/2000/svg">
<path fill-rule="evenodd" clip-rule="evenodd" d="M18.4233 24.9419L13.0553 19.5739C12.7259 19.2445 12.7259 18.7105 13.0553 18.3811L18.4233 13.0131C18.7527 12.6837 19.2868 12.6837 19.6162 13.0131C19.9456 13.3425 19.9456 13.8766 19.6162 14.206L15.6882 18.134L26.9067 18.134C27.3725 18.134 27.7502 18.5117 27.7502 18.9775C27.7502 19.4434 27.3725 19.821 26.9067 19.821L15.6882 19.821L19.6162 23.749C19.9456 24.0784 19.9456 24.6125 19.6162 24.9419C19.2868 25.2713 18.7527 25.2713 18.4233 24.9419Z" fill="white"/>
<path fill-rule="evenodd" clip-rule="evenodd" d="M10.3974 26.2085C9.93154 26.2085 9.55389 25.8309 9.55389 25.365L9.5539 12.5921C9.5539 12.1262 9.93154 11.7486 10.3974 11.7486C10.8632 11.7486 11.2409 12.1262 11.2409 12.5921L11.2409 25.365C11.2409 25.8309 10.8632 26.2085 10.3974 26.2085Z" fill="white"/>
</svg>
