<svg width="18" height="18" viewBox="0 0 18 18" fill="none" xmlns="http://www.w3.org/2000/svg">
<path d="M0 3.375C0 2.75273 0.574554 2.25 1.28571 2.25H16.7143C17.4254 2.25 18 2.75273 18 3.375C18 3.99727 17.4254 4.5 16.7143 4.5H1.28571C0.574554 4.5 0 3.99727 0 3.375ZM0 9C0 8.37773 0.574554 7.875 1.28571 7.875H16.7143C17.4254 7.875 18 8.37773 18 9C18 9.62227 17.4254 10.125 16.7143 10.125H1.28571C0.574554 10.125 0 9.62227 0 9ZM18 14.625C18 15.2473 17.4254 15.75 16.7143 15.75H1.28571C0.574554 15.75 0 15.2473 0 14.625C0 14.0027 0.574554 13.5 1.28571 13.5H16.7143C17.4254 13.5 18 14.0027 18 14.625Z" fill="white"/>
</svg>
