<svg width="12" height="12" viewBox="0 0 12 12" fill="none" xmlns="http://www.w3.org/2000/svg">
<path d="M11.4707 1.97692C11.389 1.8962 11.2909 1.83208 11.1822 1.78846C11.0735 1.74485 10.9565 1.72265 10.8384 1.72323H9.93274V1.08191C9.93482 0.941262 9.90643 0.8017 9.84934 0.671836C9.79225 0.541972 9.70767 0.424561 9.60081 0.326845C9.49754 0.225796 9.37352 0.145845 9.23637 0.0919184C9.09922 0.0379921 8.95186 0.0112342 8.80338 0.0132941H8.3521C8.20356 0.0113309 8.05617 0.0382064 7.91902 0.0922626C7.78187 0.146319 7.65787 0.226409 7.55467 0.327594C7.44777 0.425282 7.36317 0.542688 7.30607 0.672558C7.24898 0.802428 7.22062 0.942004 7.22274 1.08266V1.72398H4.51274V1.08191C4.51481 0.941262 4.48643 0.8017 4.42934 0.671836C4.37225 0.541972 4.28766 0.424561 4.1808 0.326845C4.07763 0.225889 3.95373 0.145991 3.81672 0.0920677C3.67972 0.0381445 3.53251 0.0113368 3.38416 0.0132941H2.93289C2.78434 0.0113309 2.63695 0.0382064 2.4998 0.0922626C2.36265 0.146319 2.23865 0.226409 2.13545 0.327594C2.02859 0.42531 1.94401 0.542721 1.88692 0.672584C1.82983 0.802448 1.80145 0.94201 1.80352 1.08266V1.72398H0.900184C0.782128 1.7234 0.665186 1.7456 0.556485 1.78921C0.447783 1.83283 0.349602 1.89695 0.267929 1.97767C0.182682 2.055 0.114961 2.14796 0.0688993 2.25089C0.0228373 2.35382 -0.000601975 2.46455 1.05193e-05 2.57633V11.1305C0.00305796 11.356 0.0987552 11.5715 0.266805 11.7314C0.434854 11.8912 0.662039 11.9827 0.900184 11.9866H10.8353C11.0739 11.9835 11.3017 11.8924 11.4704 11.7327C11.6391 11.5729 11.7354 11.3572 11.7386 11.1313V2.57858C11.7397 2.46629 11.7164 2.35499 11.6704 2.25152C11.6243 2.14805 11.5563 2.0546 11.4707 1.97692ZM2.93526 11.1305H0.900184V9.20656H2.9321L2.93526 11.1305ZM2.93526 8.77851H0.900184V6.64053H2.9321L2.93526 8.77851ZM2.93526 6.21248H0.900184V4.28852H2.9321L2.93526 6.21248ZM2.77719 3.15554C2.75581 3.13625 2.73882 3.11302 2.72726 3.08728C2.71571 3.06155 2.70984 3.03384 2.71002 3.00588V1.08191C2.71083 1.02539 2.73491 0.971403 2.77712 0.931432C2.81934 0.891462 2.87635 0.868664 2.93605 0.86789H3.38416C3.44385 0.868664 3.50087 0.891462 3.54308 0.931432C3.5853 0.971403 3.60937 1.02539 3.61019 1.08191V3.00662C3.60937 3.06315 3.5853 3.11713 3.54308 3.1571C3.50087 3.19708 3.44385 3.21987 3.38416 3.22065H2.93289C2.90304 3.22088 2.87345 3.21528 2.84599 3.20421C2.81852 3.19314 2.79376 3.17682 2.77324 3.15629L2.77719 3.15554ZM5.64526 11.1298H3.38416V9.20656H5.6421L5.64526 11.1298ZM5.64526 8.77776H3.38416V6.64053H5.6421L5.64526 8.77776ZM5.64526 6.21173H3.38416V4.28852H5.6421L5.64526 6.21173ZM8.35527 11.129H6.09337V9.20656H8.35131L8.35527 11.129ZM8.35527 8.77702H6.09337V6.64053H8.35131L8.35527 8.77702ZM8.35527 6.21098H6.09337V4.28852H8.35131L8.35527 6.21098ZM8.1972 3.15405C8.17543 3.13531 8.15789 3.11259 8.14566 3.08724C8.13344 3.0619 8.12677 3.03448 8.12607 3.00662V1.08191C8.12669 1.02533 8.1507 0.971233 8.19296 0.931222C8.23521 0.891211 8.29235 0.868474 8.3521 0.86789H8.80338C8.86313 0.868474 8.92027 0.891211 8.96252 0.931222C9.00478 0.971233 9.02879 1.02533 9.02941 1.08191V3.00662C9.02879 3.06321 9.00478 3.1173 8.96252 3.15732C8.92027 3.19733 8.86313 3.22006 8.80338 3.22065H8.3521C8.32225 3.22092 8.29265 3.21535 8.26518 3.20427C8.2377 3.1932 8.21295 3.17686 8.19246 3.15629L8.1972 3.15405ZM10.84 11.1283H8.80338V9.20656H10.8353L10.84 11.1283ZM10.84 8.77627H8.80338V6.64053H10.8353L10.84 8.77627ZM10.84 6.21024H8.80338V4.28852H10.8353L10.84 6.21024Z" fill="#B4B2B7"/>
</svg>
