<svg width="12" height="12" viewBox="0 0 12 12" fill="none" xmlns="http://www.w3.org/2000/svg">
<path d="M11.4819 1.97692C11.4003 1.8962 11.3021 1.83208 11.1934 1.78846C11.0847 1.74485 10.9677 1.72265 10.8497 1.72323H9.94397V1.08191C9.94605 0.941262 9.91766 0.8017 9.86057 0.671836C9.80348 0.541972 9.7189 0.424561 9.61204 0.326845C9.50877 0.225796 9.38475 0.145845 9.2476 0.0919184C9.11045 0.0379921 8.96309 0.0112342 8.81461 0.0132941H8.36333C8.21479 0.0113309 8.0674 0.0382064 7.93025 0.0922626C7.7931 0.146319 7.6691 0.226409 7.5659 0.327594C7.459 0.425282 7.3744 0.542688 7.3173 0.672558C7.26021 0.802428 7.23185 0.942004 7.23397 1.08266V1.72398H4.52397V1.08191C4.52604 0.941262 4.49766 0.8017 4.44057 0.671836C4.38348 0.541972 4.29889 0.424561 4.19203 0.326845C4.08886 0.225889 3.96496 0.145991 3.82795 0.0920677C3.69095 0.0381445 3.54374 0.0113368 3.39539 0.0132941H2.94412C2.79557 0.0113309 2.64818 0.0382064 2.51103 0.0922626C2.37388 0.146319 2.24988 0.226409 2.14668 0.327594C2.03982 0.42531 1.95524 0.542721 1.89815 0.672584C1.84106 0.802448 1.81268 0.94201 1.81475 1.08266V1.72398H0.911415C0.793358 1.7234 0.676416 1.7456 0.567715 1.78921C0.459014 1.83283 0.360833 1.89695 0.27916 1.97767C0.193912 2.055 0.126192 2.14796 0.0801298 2.25089C0.0340677 2.35382 0.0106285 2.46455 0.011241 2.57633V11.1305C0.0142884 11.356 0.109986 11.5715 0.278035 11.7314C0.446085 11.8912 0.67327 11.9827 0.911415 11.9866H10.8465C11.0851 11.9835 11.313 11.8924 11.4817 11.7327C11.6504 11.5729 11.7466 11.3572 11.7499 11.1313V2.57858C11.7509 2.46629 11.7277 2.35499 11.6816 2.25152C11.6355 2.14805 11.5676 2.0546 11.4819 1.97692ZM2.94649 11.1305H0.911415V9.20656H2.94333L2.94649 11.1305ZM2.94649 8.77851H0.911415V6.64053H2.94333L2.94649 8.77851ZM2.94649 6.21248H0.911415V4.28852H2.94333L2.94649 6.21248ZM2.78842 3.15554C2.76704 3.13625 2.75005 3.11302 2.73849 3.08728C2.72694 3.06155 2.72107 3.03384 2.72125 3.00588V1.08191C2.72206 1.02539 2.74614 0.971403 2.78835 0.931432C2.83057 0.891462 2.88758 0.868664 2.94728 0.86789H3.39539C3.45508 0.868664 3.5121 0.891462 3.55431 0.931432C3.59653 0.971403 3.6206 1.02539 3.62142 1.08191V3.00662C3.6206 3.06315 3.59653 3.11713 3.55431 3.1571C3.5121 3.19708 3.45508 3.21987 3.39539 3.22065H2.94412C2.91427 3.22088 2.88468 3.21528 2.85722 3.20421C2.82975 3.19314 2.80499 3.17682 2.78447 3.15629L2.78842 3.15554ZM5.65649 11.1298H3.39539V9.20656H5.65333L5.65649 11.1298ZM5.65649 8.77776H3.39539V6.64053H5.65333L5.65649 8.77776ZM5.65649 6.21173H3.39539V4.28852H5.65333L5.65649 6.21173ZM8.3665 11.129H6.1046V9.20656H8.36255L8.3665 11.129ZM8.3665 8.77702H6.1046V6.64053H8.36255L8.3665 8.77702ZM8.3665 6.21098H6.1046V4.28852H8.36255L8.3665 6.21098ZM8.20843 3.15405C8.18666 3.13531 8.16912 3.11259 8.15689 3.08724C8.14467 3.0619 8.138 3.03448 8.1373 3.00662V1.08191C8.13792 1.02533 8.16193 0.971233 8.20419 0.931222C8.24644 0.891211 8.30358 0.868474 8.36333 0.86789H8.81461C8.87436 0.868474 8.9315 0.891211 8.97375 0.931222C9.01601 0.971233 9.04002 1.02533 9.04064 1.08191V3.00662C9.04002 3.06321 9.01601 3.1173 8.97375 3.15732C8.9315 3.19733 8.87436 3.22006 8.81461 3.22065H8.36333C8.33348 3.22092 8.30388 3.21535 8.27641 3.20427C8.24893 3.1932 8.22418 3.17686 8.20369 3.15629L8.20843 3.15405ZM10.8513 11.1283H8.81461V9.20656H10.8465L10.8513 11.1283ZM10.8513 8.77627H8.81461V6.64053H10.8465L10.8513 8.77627ZM10.8513 6.21024H8.81461V4.28852H10.8465L10.8513 6.21024Z" fill="#333333"/>
</svg>
