<svg width="20" height="23" viewBox="0 0 20 23" fill="none" xmlns="http://www.w3.org/2000/svg">
<path d="M2.85714 1.42857C1.28125 1.42857 0 2.70982 0 4.28571V18.5714C0 20.1473 1.28125 21.4286 2.85714 21.4286H17.1429C18.7188 21.4286 20 20.1473 20 18.5714V4.28571C20 2.70982 18.7188 1.42857 17.1429 1.42857H2.85714ZM15.0446 9.33036L9.33036 15.0446C8.91071 15.4643 8.23214 15.4643 7.81696 15.0446L4.95982 12.1875C4.54018 11.7679 4.54018 11.0893 4.95982 10.6741C5.37946 10.2589 6.05804 10.2545 6.47321 10.6741L8.57143 12.7723L13.5268 7.8125C13.9464 7.39286 14.625 7.39286 15.0402 7.8125C15.4554 8.23214 15.4598 8.91071 15.0402 9.32589L15.0446 9.33036Z" fill="#6E39CB"/>
</svg>
