<svg width="20" height="23" viewBox="0 0 20 23" fill="none" xmlns="http://www.w3.org/2000/svg">
<path d="M17.1429 1.42857C18.7188 1.42857 20 2.70759 20 4.28571V18.5714C20 20.1473 18.7188 21.4286 17.1429 21.4286H2.85714C1.27902 21.4286 0 20.1473 0 18.5714V4.28571C0 2.70759 1.27902 1.42857 2.85714 1.42857H17.1429ZM17.1429 3.57143H2.85714C2.4625 3.57143 2.14286 3.89107 2.14286 4.28571V18.5714C2.14286 18.9643 2.4625 19.2857 2.85714 19.2857H17.1429C17.5357 19.2857 17.8571 18.9643 17.8571 18.5714V4.28571C17.8571 3.89107 17.5357 3.57143 17.1429 3.57143Z" fill="#B4B2B7"/>
</svg>
