<svg width="29" height="29" viewBox="0 0 29 29" fill="none" xmlns="http://www.w3.org/2000/svg">
<g filter="url(#filter0_d_567_7874)">
<rect x="4" y="4" width="21" height="21" rx="3" fill="white"/>
</g>
<path d="M18.43 12.0327C18.7423 11.7204 18.7423 11.2131 18.43 10.9008C18.1176 10.5884 17.6104 10.5884 17.298 10.9008L14.6667 13.5345L12.033 10.9033C11.7206 10.5909 11.2134 10.5909 10.901 10.9033C10.5887 11.2156 10.5887 11.7229 10.901 12.0352L13.5348 14.6665L10.9035 17.3003C10.5912 17.6126 10.5912 18.1199 10.9035 18.4322C11.2159 18.7446 11.7231 18.7446 12.0355 18.4322L14.6667 15.7985L17.3005 18.4297C17.6129 18.7421 18.1201 18.7421 18.4325 18.4297C18.7448 18.1174 18.7448 17.6101 18.4325 17.2978L15.7987 14.6665L18.43 12.0327Z" fill="#89868D"/>
<defs>
<filter id="filter0_d_567_7874" x="0" y="0" width="29" height="29" filterUnits="userSpaceOnUse" color-interpolation-filters="sRGB">
<feFlood flood-opacity="0" result="BackgroundImageFix"/>
<feColorMatrix in="SourceAlpha" type="matrix" values="0 0 0 0 0 0 0 0 0 0 0 0 0 0 0 0 0 0 127 0" result="hardAlpha"/>
<feOffset/>
<feGaussianBlur stdDeviation="2"/>
<feComposite in2="hardAlpha" operator="out"/>
<feColorMatrix type="matrix" values="0 0 0 0 0 0 0 0 0 0 0 0 0 0 0 0 0 0 0.15 0"/>
<feBlend mode="normal" in2="BackgroundImageFix" result="effect1_dropShadow_567_7874"/>
<feBlend mode="normal" in="SourceGraphic" in2="effect1_dropShadow_567_7874" result="shape"/>
</filter>
</defs>
</svg>
