<svg width="14" height="11" viewBox="0 0 14 11" fill="none" xmlns="http://www.w3.org/2000/svg">
<path d="M3.15 11C1.41094 11 0 9.41629 0 7.46429C0 5.92232 0.879375 4.61116 2.10437 4.12746C2.10219 4.06116 2.1 3.99487 2.1 3.92857C2.1 1.75804 3.66625 0 5.6 0C6.89719 0 8.02812 0.790625 8.63406 1.9692C8.96656 1.71875 9.36906 1.57143 9.8 1.57143C10.9594 1.57143 11.9 2.62723 11.9 3.92857C11.9 4.22813 11.8497 4.51295 11.76 4.77813C13.0375 5.06786 14 6.33728 14 7.85714C14 9.59308 12.7466 11 11.2 11H3.15ZM4.87812 6.89955L6.62812 8.86384C6.83375 9.09464 7.16625 9.09464 7.36969 8.86384L9.11969 6.89955C9.32531 6.66875 9.32531 6.29554 9.11969 6.06719C8.91406 5.83884 8.58156 5.83638 8.37813 6.06719L7.525 7.02478V3.73214C7.525 3.40558 7.29094 3.14286 7 3.14286C6.70906 3.14286 6.475 3.40558 6.475 3.73214V7.02478L5.62187 6.06719C5.41625 5.83638 5.08375 5.83638 4.88031 6.06719C4.67688 6.29799 4.67469 6.67121 4.88031 6.89955H4.87812Z" fill="#B388FE"/>
</svg>
