<svg width="18" height="14" viewBox="0 0 18 14" fill="none" xmlns="http://www.w3.org/2000/svg">
<path d="M4.05 13.5004C1.81406 13.5004 0 11.6863 0 9.45039C0 7.68414 1.13062 6.18227 2.70562 5.6282C2.70281 5.55227 2.7 5.47633 2.7 5.40039C2.7 2.91414 4.71375 0.900391 7.2 0.900391C8.86781 0.900391 10.3219 1.80602 11.1009 3.15602C11.5284 2.86914 12.0459 2.70039 12.6 2.70039C14.0906 2.70039 15.3 3.90977 15.3 5.40039C15.3 5.74352 15.2353 6.06977 15.12 6.37352C16.7625 6.70539 18 8.15945 18 9.90039C18 11.8888 16.3884 13.5004 14.4 13.5004H4.05ZM6.27187 8.80352L8.52187 11.0535C8.78625 11.3179 9.21375 11.3179 9.47531 11.0535L11.7253 8.80352C11.9897 8.53914 11.9897 8.11164 11.7253 7.85008C11.4609 7.58852 11.0334 7.5857 10.7719 7.85008L9.675 8.94695V5.17539C9.675 4.80133 9.37406 4.50039 9 4.50039C8.62594 4.50039 8.325 4.80133 8.325 5.17539V8.94695L7.22812 7.85008C6.96375 7.5857 6.53625 7.5857 6.27469 7.85008C6.01312 8.11445 6.01031 8.54195 6.27469 8.80352H6.27187Z" fill="#89868D"/>
</svg>
