<svg width="36" height="36" viewBox="0 0 36 36" fill="none" xmlns="http://www.w3.org/2000/svg">
<g filter="url(#filter0_d_352_5082)">
<path d="M18 17.75H26.75V19H18V17.75ZM18 9H26.75V10.25H18V9ZM13 11.5V6.5H11.75V7.125H10.5V8.375H11.75V11.5H10.5V12.75H14.25V11.5H13ZM14.25 21.5H10.5V19C10.5 18.6685 10.6317 18.3505 10.8661 18.1161C11.1005 17.8817 11.4185 17.75 11.75 17.75H13V16.5H10.5V15.25H13C13.3315 15.25 13.6495 15.3817 13.8839 15.6161C14.1183 15.8505 14.25 16.1685 14.25 16.5V17.75C14.25 18.0815 14.1183 18.3995 13.8839 18.6339C13.6495 18.8683 13.3315 19 13 19H11.75V20.25H14.25V21.5Z" fill="#212529"/>
</g>
<defs>
<filter id="filter0_d_352_5082" x="0" y="0" width="36" height="36" filterUnits="userSpaceOnUse" color-interpolation-filters="sRGB">
<feFlood flood-opacity="0" result="BackgroundImageFix"/>
<feColorMatrix in="SourceAlpha" type="matrix" values="0 0 0 0 0 0 0 0 0 0 0 0 0 0 0 0 0 0 127 0" result="hardAlpha"/>
<feOffset dy="4"/>
<feGaussianBlur stdDeviation="2"/>
<feComposite in2="hardAlpha" operator="out"/>
<feColorMatrix type="matrix" values="0 0 0 0 0 0 0 0 0 0 0 0 0 0 0 0 0 0 0.25 0"/>
<feBlend mode="normal" in2="BackgroundImageFix" result="effect1_dropShadow_352_5082"/>
<feBlend mode="normal" in="SourceGraphic" in2="effect1_dropShadow_352_5082" result="shape"/>
</filter>
</defs>
</svg>
