<svg width="133" height="29" viewBox="0 0 133 29" fill="none" xmlns="http://www.w3.org/2000/svg">
<path d="M0.00230013 9.85774C-0.0523921 9.6572 0.86826 9.55693 2.76426 9.55693C4.86079 9.55693 5.9364 9.73012 5.99109 10.0765L7.33105 21.5892L10.2297 9.93977C10.3209 9.66631 11.0319 9.52958 12.3627 9.52958C13.6936 9.52958 14.4046 9.6572 14.4957 9.91243L17.3397 21.6439L18.9258 10.0218C18.9623 9.82127 19.3816 9.68454 20.1837 9.61162C20.9859 9.5387 21.6331 9.50224 22.1253 9.50224C24.0395 9.50224 24.9693 9.62985 24.9146 9.88508L21.6057 28.0155C21.5328 28.289 21.0132 28.4895 20.047 28.6172C19.0808 28.7448 18.2968 28.8086 17.6952 28.8086C15.4346 28.8086 14.2496 28.5533 14.1402 28.0429L12.2807 20.5227L10.2571 28.0155C10.1842 28.3437 9.54609 28.5807 8.34286 28.7265C7.72301 28.7812 7.10317 28.8086 6.48332 28.8086L4.73317 28.7265C3.52995 28.5989 2.89187 28.371 2.81895 28.0429L0.00230013 9.85774Z" fill="white"/>
<path d="M27.8987 27.1131C26.7684 25.8552 26.2033 24.1142 26.2033 21.89C26.2033 19.6659 26.7684 17.9248 27.8987 16.6669C29.0473 15.409 30.5878 14.78 32.5202 14.78C34.4527 14.78 35.9841 15.409 37.1144 16.6669C38.2447 17.9248 38.8098 19.6659 38.8098 21.89C38.8098 24.1142 38.2447 25.8552 37.1144 27.1131C35.9841 28.371 34.4527 29 32.5202 29C30.5878 29 29.0473 28.371 27.8987 27.1131ZM32.5202 19.3468C31.4993 19.3468 30.9888 20.1854 30.9888 21.8627C30.9888 23.5399 31.4993 24.3785 32.5202 24.3785C33.5594 24.3785 34.0789 23.5399 34.0789 21.8627C34.0789 20.1854 33.5594 19.3468 32.5202 19.3468Z" fill="white"/>
<path d="M46.7319 28.6992C46.7319 28.8268 45.9024 28.8906 44.2434 28.8906C42.5844 28.8542 41.7549 28.7812 41.7549 28.6718V19.5929H41.0165C40.7248 19.5929 40.4878 19.4198 40.3055 19.0734C40.1414 18.7088 40.0594 18.2621 40.0594 17.7334C40.0594 15.7645 40.6428 14.78 41.8096 14.78C42.6299 14.78 43.3136 15.0353 43.8605 15.5457C44.4074 16.038 44.6809 16.6031 44.6809 17.2412C45.0637 16.4937 45.5742 15.9012 46.2123 15.4637C46.8686 15.0079 47.534 14.78 48.2085 14.78C49.2659 14.78 49.904 15.0535 50.1228 15.6004C50.1775 15.7463 50.2048 15.965 50.2048 16.2567C50.2048 16.5302 50.1137 17.0315 49.9313 17.7608C49.7673 18.49 49.5941 19.0187 49.4118 19.3468C49.2295 19.675 49.1201 19.8391 49.0836 19.8391C49.0472 19.8391 48.874 19.7753 48.564 19.6476C48.2724 19.5018 48.008 19.4289 47.771 19.4289C47.0782 19.4289 46.7319 19.9758 46.7319 21.0696V28.6992Z" fill="white"/>
<path d="M51.5854 9.80304C51.5854 9.51135 52.4149 9.36551 54.0739 9.36551C55.6235 9.4202 56.3983 9.5387 56.3983 9.72101V20.2219L59.1055 15.2176C59.2331 14.9441 60.008 14.8074 61.43 14.8074C62.8519 14.8074 63.7635 14.8985 64.1646 15.0808L60.6096 20.8782L64.7115 28.5625C64.7479 28.6354 64.4016 28.6901 63.6723 28.7265C62.9613 28.7812 62.3688 28.8086 61.8948 28.8086C60.1447 28.8086 59.2058 28.7265 59.0782 28.5625L56.3709 22.4916V28.5351C56.3709 28.7721 55.5688 28.8906 53.9645 28.8906C52.3784 28.8906 51.5854 28.7812 51.5854 28.5625V9.80304Z" fill="white"/>
<path d="M67.1795 18.6905H65.8395C65.566 18.6905 65.4293 18.0889 65.4293 16.8857C65.4293 15.6642 65.566 15.0535 65.8395 15.0535H67.1795V14.4519C67.1795 12.5194 67.5805 11.1886 68.3827 10.4594C69.2031 9.71189 70.3425 9.33816 71.801 9.33816C73.2594 9.33816 74.5447 9.60251 75.6568 10.1312C75.8026 10.1859 75.8755 10.3864 75.8755 10.7328C75.8755 11.061 75.7206 11.5988 75.4106 12.3462C75.1007 13.0937 74.8364 13.5221 74.6176 13.6315C73.9978 13.2487 73.3597 13.0572 72.7034 13.0572C71.9924 13.0572 71.6369 13.5312 71.6369 14.4792V15.0535H73.9066C74.2348 15.0535 74.3988 15.6369 74.3988 16.8036C74.3988 18.0798 74.1892 18.7179 73.7699 18.7179H72.0197V28.3984C72.0197 28.6172 71.2085 28.7265 69.5859 28.7265C67.9816 28.7265 67.1795 28.6172 67.1795 28.3984V18.6905Z" fill="white"/>
<path d="M81.3447 28.5078C81.3447 28.6718 80.415 28.7539 78.5554 28.7539C77.097 28.7357 76.3678 28.6627 76.3678 28.5351V9.91243C76.3678 9.63897 77.2519 9.50224 79.0203 9.50224C80.5699 9.55693 81.3447 9.64808 81.3447 9.7757V28.5078Z" fill="white"/>
<path d="M84.9944 27.1131C83.8641 25.8552 83.2989 24.1142 83.2989 21.89C83.2989 19.6659 83.8641 17.9248 84.9944 16.6669C86.1429 15.409 87.6834 14.78 89.6159 14.78C91.5483 14.78 93.0797 15.409 94.21 16.6669C95.3403 17.9248 95.9055 19.6659 95.9055 21.89C95.9055 24.1142 95.3403 25.8552 94.21 27.1131C93.0797 28.371 91.5483 29 89.6159 29C87.6834 29 86.1429 28.371 84.9944 27.1131ZM89.6159 19.3468C88.5949 19.3468 88.0845 20.1854 88.0845 21.8627C88.0845 23.5399 88.5949 24.3785 89.6159 24.3785C90.655 24.3785 91.1746 23.5399 91.1746 21.8627C91.1746 20.1854 90.655 19.3468 89.6159 19.3468Z" fill="white"/>
<path d="M112.031 15.1902C112.031 15.0261 112.533 14.9441 113.535 14.9441C115.796 14.9441 116.908 15.017 116.872 15.1629L114.192 28.4531C114.137 28.7448 113.125 28.8906 111.156 28.8906C109.187 28.8906 108.176 28.7448 108.121 28.4531L107 22.3276L105.605 28.4531C105.55 28.7265 104.502 28.8633 102.46 28.8633C100.437 28.8633 99.3974 28.6992 99.3427 28.371L96.9089 15.0535C96.8542 14.9441 97.6382 14.8894 99.2607 14.8894C100.865 14.9076 101.667 14.9441 101.667 14.9988L102.925 24.2418L105.195 15.1082C105.231 14.9988 105.833 14.9441 107 14.9441C108.166 14.9441 108.768 14.9988 108.804 15.1082L111.047 24.1324L112.031 15.1902Z" fill="white"/>
<path d="M127.513 0.820383V5.41453H132.135C132.463 5.41453 132.7 5.67887 132.846 6.20756C132.919 6.48102 132.955 6.74537 132.955 7.0006C132.955 7.25583 132.919 7.52018 132.846 7.79364C132.7 8.32233 132.463 8.58667 132.135 8.58667H127.513V13.2629C127.513 13.591 127.249 13.828 126.72 13.9739C126.465 14.0468 126.201 14.0832 125.927 14.0832L125.134 13.9739C124.606 13.828 124.341 13.591 124.341 13.2629V8.58667H119.692C119.364 8.58667 119.127 8.32233 118.981 7.79364C118.908 7.52018 118.872 7.25583 118.872 7.0006C118.872 6.74537 118.908 6.48102 118.981 6.20756C119.127 5.67887 119.364 5.41453 119.692 5.41453H124.341V0.820383C124.341 0.49223 124.606 0.255231 125.134 0.109385C125.389 0.0364615 125.654 0 125.927 0L126.72 0.109385C127.249 0.255231 127.513 0.49223 127.513 0.820383Z" fill="white"/>
</svg>
