<svg width="19" height="18" viewBox="0 0 19 18" fill="none" xmlns="http://www.w3.org/2000/svg">
<path fill-rule="evenodd" clip-rule="evenodd" d="M13.1985 8.99625C13.1985 8.06475 13.9545 7.30875 14.886 7.30875C15.8175 7.30875 16.5735 8.06475 16.5735 8.99625C16.5735 9.92775 15.8175 10.6837 14.886 10.6837C13.9545 10.6837 13.1985 9.92775 13.1985 8.99625ZM8.13605 8.99625C8.13605 8.06475 8.89205 7.30875 9.82355 7.30875C10.755 7.30875 11.511 8.06475 11.511 8.99625C11.511 9.92775 10.755 10.6837 9.82355 10.6837C8.89205 10.6837 8.13605 9.92775 8.13605 8.99625ZM3.07355 8.99625C3.07355 8.06475 3.82955 7.30875 4.76105 7.30875C5.69255 7.30875 6.44855 8.06475 6.44855 8.99625C6.44855 9.92775 5.69255 10.6837 4.76105 10.6837C3.82955 10.6837 3.07355 9.92775 3.07355 8.99625Z" fill="white"/>
</svg>
