<svg width="18" height="18" viewBox="0 0 18 18" fill="none" xmlns="http://www.w3.org/2000/svg">
<path fill-rule="evenodd" clip-rule="evenodd" d="M8.6875 12.125C9.619 12.125 10.375 12.881 10.375 13.8125C10.375 14.744 9.619 15.5 8.6875 15.5C7.756 15.5 7 14.744 7 13.8125C7 12.881 7.756 12.125 8.6875 12.125ZM8.6875 7.0625C9.619 7.0625 10.375 7.8185 10.375 8.75C10.375 9.6815 9.619 10.4375 8.6875 10.4375C7.756 10.4375 7 9.6815 7 8.75C7 7.8185 7.756 7.0625 8.6875 7.0625ZM8.6875 2C9.619 2 10.375 2.756 10.375 3.6875C10.375 4.619 9.619 5.375 8.6875 5.375C7.756 5.375 7 4.619 7 3.6875C7 2.756 7.756 2 8.6875 2Z" fill="white"/>
</svg>
