<svg width="18" height="19" viewBox="0 0 18 19" fill="none" xmlns="http://www.w3.org/2000/svg">
<path fill-rule="evenodd" clip-rule="evenodd" d="M9 12.8711C9.9315 12.8711 10.6875 13.6271 10.6875 14.5586C10.6875 15.4901 9.9315 16.2461 9 16.2461C8.0685 16.2461 7.3125 15.4901 7.3125 14.5586C7.3125 13.6271 8.0685 12.8711 9 12.8711ZM9 7.80859C9.9315 7.80859 10.6875 8.56459 10.6875 9.49609C10.6875 10.4276 9.9315 11.1836 9 11.1836C8.0685 11.1836 7.3125 10.4276 7.3125 9.49609C7.3125 8.56459 8.0685 7.80859 9 7.80859ZM9 2.74609C9.9315 2.74609 10.6875 3.50209 10.6875 4.43359C10.6875 5.36509 9.9315 6.12109 9 6.12109C8.0685 6.12109 7.3125 5.36509 7.3125 4.43359C7.3125 3.50209 8.0685 2.74609 9 2.74609Z" fill="#3A3541"/>
</svg>
