<svg width="27" height="30" viewBox="0 0 27 30" fill="none" xmlns="http://www.w3.org/2000/svg">
<g id="Icon/plus">
<path id="Vector" d="M15.4286 4.6875C15.4286 3.65039 14.5668 2.8125 13.5001 2.8125C12.4333 2.8125 11.5715 3.65039 11.5715 4.6875V13.125H2.89293C1.82619 13.125 0.964355 13.9629 0.964355 15C0.964355 16.0371 1.82619 16.875 2.89293 16.875H11.5715V25.3125C11.5715 26.3496 12.4333 27.1875 13.5001 27.1875C14.5668 27.1875 15.4286 26.3496 15.4286 25.3125V16.875H24.1072C25.174 16.875 26.0358 16.0371 26.0358 15C26.0358 13.9629 25.174 13.125 24.1072 13.125H15.4286V4.6875Z" fill="#B4B2B7"/>
</g>
</svg>
