<svg width="13" height="14" viewBox="0 0 13 14" fill="none" xmlns="http://www.w3.org/2000/svg">
<path d="M10.563 5.68667C10.563 6.94156 10.1847 8.10077 9.54734 9.04125L12.762 12.5052C13.0793 12.8469 13.0793 13.4019 12.762 13.7437C12.4446 14.0854 11.9291 14.0854 11.6117 13.7437L8.39709 10.2797C7.52361 10.9687 6.44699 11.3733 5.28151 11.3733C2.36398 11.3733 0 8.828 0 5.68667C0 2.54533 2.36398 0 5.28151 0C8.19903 0 10.563 2.54533 10.563 5.68667ZM5.28151 9.62359C7.30016 9.62359 8.93794 7.86018 8.93794 5.68667C8.93794 3.51316 7.30016 1.74974 5.28151 1.74974C3.26285 1.74974 1.62508 3.51316 1.62508 5.68667C1.62508 7.86018 3.26285 9.62359 5.28151 9.62359Z" fill="#89868D"/>
</svg>
