<svg width="19" height="18" viewBox="0 0 19 18" fill="none" xmlns="http://www.w3.org/2000/svg">
<g clip-path="url(#clip0_126_4194)">
<path d="M18.2993 5.85703C18.4118 6.16289 18.3168 6.50391 18.0743 6.72187L16.552 8.10703C16.5907 8.39883 16.6118 8.69766 16.6118 9C16.6118 9.30234 16.5907 9.60117 16.552 9.89297L18.0743 11.2781C18.3168 11.4961 18.4118 11.8371 18.2993 12.143C18.1446 12.5613 17.9582 12.9621 17.7438 13.3488L17.5785 13.6336C17.3465 14.0203 17.0864 14.3859 16.8016 14.7305C16.5942 14.9836 16.2496 15.068 15.9403 14.9695L13.9821 14.3473C13.511 14.7094 12.9907 15.0117 12.4352 15.2402L11.9957 17.2477C11.9254 17.5676 11.6793 17.8207 11.3559 17.8734C10.8707 17.9543 10.3715 17.9965 9.86175 17.9965C9.35199 17.9965 8.85277 17.9543 8.36761 17.8734C8.04417 17.8207 7.79808 17.5676 7.72777 17.2477L7.28831 15.2402C6.73285 15.0117 6.21253 14.7094 5.74144 14.3473L3.78675 14.973C3.47738 15.0715 3.13285 14.9836 2.92542 14.734C2.64066 14.3895 2.3805 14.0238 2.14847 13.6371L1.98324 13.3523C1.76878 12.9656 1.58246 12.5648 1.42777 12.1465C1.31527 11.8406 1.41019 11.4996 1.65277 11.2816L3.17503 9.89648C3.13636 9.60117 3.11527 9.30234 3.11527 9C3.11527 8.69766 3.13636 8.39883 3.17503 8.10703L1.65277 6.72187C1.41019 6.50391 1.31527 6.16289 1.42777 5.85703C1.58246 5.43867 1.76878 5.03789 1.98324 4.65117L2.14847 4.36641C2.3805 3.97969 2.64066 3.61406 2.92542 3.26953C3.13285 3.01641 3.47738 2.93203 3.78675 3.03047L5.74496 3.65273C6.21605 3.29063 6.73636 2.98828 7.29183 2.75977L7.73128 0.752344C7.8016 0.432422 8.04769 0.179297 8.37113 0.126562C8.85628 0.0421875 9.3555 0 9.86527 0C10.375 0 10.8743 0.0421875 11.3594 0.123047C11.6828 0.175781 11.9289 0.428906 11.9993 0.748828L12.4387 2.75625C12.9942 2.98477 13.5145 3.28711 13.9856 3.64922L15.9438 3.02695C16.2532 2.92852 16.5977 3.01641 16.8051 3.26602C17.0899 3.61055 17.35 3.97617 17.5821 4.36289L17.7473 4.64766C17.9618 5.03437 18.1481 5.43516 18.3028 5.85352L18.2993 5.85703ZM9.86527 11.8125C11.4192 11.8125 12.6778 10.5539 12.6778 9C12.6778 7.44609 11.4192 6.1875 9.86527 6.1875C8.31136 6.1875 7.05277 7.44609 7.05277 9C7.05277 10.5539 8.31136 11.8125 9.86527 11.8125Z" fill="white"/>
</g>
<defs>
<clipPath id="clip0_126_4194">
<rect width="18" height="18" fill="white" transform="translate(0.865234)"/>
</clipPath>
</defs>
</svg>
