<svg width="18" height="19" viewBox="0 0 18 19" fill="none" xmlns="http://www.w3.org/2000/svg">
<path d="M2.25 5.17969H3.75H15.75" stroke="#89868D" stroke-width="0.8" stroke-linecap="round" stroke-linejoin="round"/>
<path d="M6 5.17969V3.67969C6 3.28186 6.15804 2.90033 6.43934 2.61903C6.72064 2.33772 7.10218 2.17969 7.5 2.17969H10.5C10.8978 2.17969 11.2794 2.33772 11.5607 2.61903C11.842 2.90033 12 3.28186 12 3.67969V5.17969M14.25 5.17969V15.6797C14.25 16.0775 14.092 16.459 13.8107 16.7403C13.5294 17.0217 13.1478 17.1797 12.75 17.1797H5.25C4.85218 17.1797 4.47064 17.0217 4.18934 16.7403C3.90804 16.459 3.75 16.0775 3.75 15.6797V5.17969H14.25Z" stroke="#89868D" stroke-width="0.8" stroke-linecap="round" stroke-linejoin="round"/>
<path d="M7.5 8.92969V13.4297" stroke="#89868D" stroke-width="0.8" stroke-linecap="round" stroke-linejoin="round"/>
<path d="M10.5 8.92969V13.4297" stroke="#89868D" stroke-width="0.8" stroke-linecap="round" stroke-linejoin="round"/>
</svg>
