<svg width="18" height="18" viewBox="0 0 18 18" fill="none" xmlns="http://www.w3.org/2000/svg">
<g clip-path="url(#clip0_146_10715)">
<path d="M7.983 12.81C10.1325 12.3135 11.3872 11.8792 10.4175 10.0485C7.4685 4.47825 9.636 1.5 12.7507 1.5C15.927 1.5 18.0413 4.593 15.0833 10.0485C14.0843 11.8897 15.411 12.324 17.5148 12.81C19.377 13.2405 19.5 14.1502 19.5 15.7267V16.5H6C6 14.4412 5.835 13.3065 7.983 12.81ZM-1.5 16.5H4.35675C4.3305 10.3673 6.93375 12.5153 6.93375 8.15475C6.93375 6.2715 5.7045 5.25 4.12275 5.25C1.7865 5.25 0.16125 7.48425 2.373 11.6617C3.09975 13.0343 1.59975 13.3605 -0.0127499 13.7325C-1.40925 14.055 -1.5 14.7375 -1.5 15.9202V16.5Z" fill="#3A3541"/>
</g>
<defs>
<clipPath id="clip0_146_10715">
<rect width="18" height="18" fill="white"/>
</clipPath>
</defs>
</svg>
