<svg width="19" height="18" viewBox="0 0 19 18" fill="none" xmlns="http://www.w3.org/2000/svg">
<g clip-path="url(#clip0_126_4180)">
<path d="M8.70199 12.81C10.8515 12.3135 12.1062 11.8792 11.1365 10.0485C8.18749 4.47825 10.355 1.5 13.4697 1.5C16.646 1.5 18.7602 4.593 15.8022 10.0485C14.8032 11.8897 16.13 12.324 18.2337 12.81C20.096 13.2405 20.219 14.1502 20.219 15.7267V16.5H6.71899C6.71899 14.4412 6.55399 13.3065 8.70199 12.81ZM-0.781006 16.5H5.07574C5.04949 10.3673 7.65274 12.5153 7.65274 8.15475C7.65274 6.2715 6.42349 5.25 4.84174 5.25C2.50549 5.25 0.880244 7.48425 3.09199 11.6617C3.81874 13.0343 2.31874 13.3605 0.706244 13.7325C-0.690256 14.055 -0.781006 14.7375 -0.781006 15.9202V16.5Z" fill="white"/>
</g>
<defs>
<clipPath id="clip0_126_4180">
<rect width="18" height="18" fill="white" transform="translate(0.718994)"/>
</clipPath>
</defs>
</svg>
